<svg id="Layer_4" data-name="Layer 4" xmlns="http://www.w3.org/2000/svg" width="201.1439" height="200" viewBox="0 0 201.1439 200"><defs><style>.cls-1{fill:none;stroke:#f36e73;stroke-linecap:round;stroke-miterlimit:10;}.cls-2{fill:#fff;}.cls-3{fill:#ed1c24;}</style></defs><title>Logo BSmerge2</title><ellipse cx="100.5719" cy="100" rx="100.5719" ry="100"/><path class="cls-1" d="M225.5405,153.5431" transform="translate(1.0299 0)"/><path class="cls-1" d="M-36.0811,77.914" transform="translate(1.0299 0)"/><path class="cls-2" d="M99.4925,195.4606a96.059,96.059,0,0,1-19.259-1.9463A94.9984,94.9984,0,0,1,46.0425,179.1a95.9021,95.9021,0,0,1-34.59-42.0853A8.374,8.374,0,0,1,26.9068,130.56,79.1091,79.1091,0,0,0,68.8509,172.598a78.2036,78.2036,0,0,0,14.7679,4.5934,79.7625,79.7625,0,0,0,31.7473,0,78.19,78.19,0,0,0,28.1431-11.8675,78.9329,78.9329,0,0,0,33.1613-49.5873c.3493-1.71.6681-4.235.9369-6.9424l-20.8317,0c-7.5023-.0709-17.4491-.0208-27.0683.0264-8.5512.043-37.3685.0178-37.3685.0178v-8.3086l7.5384-9.2409a62.1944,62.1944,0,0,0,3.8591-5.6458,14.6634,14.6634,0,0,0,1.7875-7.1876l-.0366-3.1639-.0287-3.6278L105.364,65.75a5.0147,5.0147,0,0,0-4.9961-4.92L88.569,60.7552V88.8018H71.807V44.127l17.8795-.0411H104.38a18.0273,18.0273,0,0,1,18.0581,17.9317l.0567,12.3214v3.8934a23.2131,23.2131,0,0,1-4.6718,13.9719c3.7237-.0106,7.7076-.0305,11.8-.0507,9.6608-.0481,19.6509-.0973,27.2694-.0263H186.3a8.7745,8.7745,0,0,1,6.3391,2.7179,8.6713,8.6713,0,0,1,2.3624,6.4481,157.6052,157.6052,0,0,1-1.9044,17.76,95.2606,95.2606,0,0,1-14.3668,34.21A95.8149,95.8149,0,0,1,136.7062,187.93a95.0246,95.0246,0,0,1-17.955,5.5843A96.0568,96.0568,0,0,1,99.4925,195.4606Z" transform="translate(1.0299 0)"/><path class="cls-3" d="M131.2992,118.2793a46.114,46.114,0,0,1,1.281,7.2565c.171,1.2725.3088,3.0671.3862,4.4011.1631,2.8108-.1342,9.517-1.1338,12.4268-1.2579,3.6615-3.306,8.2711-6.9223,11.4783a23.87,23.87,0,0,1-15.6424,6.4765l-.0563.0007h-.0563l-19.9491-.042-16.79-.2857a.97.97,0,0,1-.9567-.9757l.3479-39.55v-9.7482a.97.97,0,0,0-.9564-.9672c-2.2164-.0365-4.6185-.0789-7.0693-.1218-7.86-.1384-16.7684-.2953-21.6015-.2953H12.7344a8.7736,8.7736,0,0,1-6.3391-2.7181,8.6705,8.6705,0,0,1-2.3627-6.448A157.6827,157.6827,0,0,1,5.9371,81.4077a95.2543,95.2543,0,0,1,14.3672-34.21A95.8138,95.8138,0,0,1,62.3285,12.53,95.0283,95.0283,0,0,1,80.2831,6.946a96.7085,96.7085,0,0,1,38.5176,0A94.9994,94.9994,0,0,1,152.9919,21.36a95.9081,95.9081,0,0,1,34.59,42.085A8.374,8.374,0,0,1,172.128,69.9a79.1078,79.1078,0,0,0-41.9442-42.0377,78.2,78.2,0,0,0-14.7679-4.5933,79.79,79.79,0,0,0-31.7476,0A78.1943,78.1943,0,0,0,55.5251,35.137,78.9334,78.9334,0,0,0,22.3639,84.7243c-.3028,1.4824-.5827,3.5772-.8268,5.8718a.971.971,0,0,0,.9682,1.07H42.18c4.9814,0,13.5814.1513,21.8981.2977,6.7654.1191,13.1555.2316,16.11.2316h7.4076a.9706.9706,0,0,1,.9734.9678l0,26.41-.2106,23.0606a.97.97,0,0,0,.9568.9757l.1148.0019c2.9559.1644,11.8539.4005,17.65.3607,2.7675-.019,6.9223-3.2476,7.5746-7.0133a36.6878,36.6878,0,0,0-.0078-14.0493,19.2455,19.2455,0,0,0-2.5551-6.2162c-1.3678-2.0167-2.1166-2.3261-2.7454-3.5275a.9674.9674,0,0,1,.8814-1.4135l16.5421-.086c.3128.0056.98.08,1.1621.3327a20.9069,20.9069,0,0,1,2.2084,3.397A28.5349,28.5349,0,0,1,131.2992,118.2793Zm-14.8713,4.9948h0Z" transform="translate(1.0299 0)"/></svg>