<?xml version="1.0" encoding="iso-8859-1"?>
<!-- Generator: Adobe Illustrator 26.2.1, SVG Export Plug-In . SVG Version: 6.00 Build 0)  -->
<svg version="1.1" id="Layer_4" xmlns="http://www.w3.org/2000/svg" xmlns:xlink="http://www.w3.org/1999/xlink" x="0px" y="0px"
	 viewBox="0 0 201.144 200" width="200" height="200" style="enable-background:new 0 0 201.144 200;" xml:space="preserve">
<ellipse cx="100.572" cy="78.151" rx="80.83" ry="78.151"/>
<path style="fill:#FFFFFF;" d="M100.509,152.455c-20.382,0.009-39.928-7.878-54.316-21.916c-5.94-5.783-10.865-12.473-14.581-19.804
	c-1.251-2.438-2.233-4.662-2.997-6.556c-0.117-0.294,0.033-0.626,0.336-0.74c0.071-0.027,0.146-0.04,0.222-0.039l6.427,0.093
	l7.106,0.141c0.222,0.002,0.424,0.129,0.517,0.325c1.374,2.872,2.976,5.635,4.792,8.265c9.233,13.383,23.503,22.703,39.736,25.953
	c8.419,1.662,17.096,1.662,25.515,0c8.093-1.616,15.78-4.768,22.619-9.275c13.755-9.03,23.323-22.942,26.652-38.753
	c0.253-1.202,0.485-2.92,0.687-4.794c0.033-0.315-0.202-0.597-0.526-0.629c-0.02-0.002-0.04-0.003-0.06-0.003h-16.09
	c-6.03-0.055-14.024-0.016-21.755,0.021c-6.228,0.03-25.833,0.017-29.455,0.014c-0.322-0.001-0.583-0.255-0.582-0.568
	c0,0,0,0,0-0.001l-0.071-12.036c0.001-0.267,0.191-0.498,0.458-0.559c1.63-0.489,3.222-1.091,4.765-1.8
	c1.565-0.688,2.974-1.67,4.145-2.891c1.226-1.222,2.212-2.651,2.91-4.218c0.712-1.628,1.106-3.37,1.163-5.138
	c0.109-1.591-0.114-3.186-0.656-4.691c-0.462-1.548-1.386-2.928-2.657-3.964c-1.281-0.886-2.787-1.414-4.354-1.528
	c-1.395-0.199-2.004-0.055-4.618-0.003c-1.775,0.035-3.217,0.003-4.145-0.029c0.011,7.064,0.022,14.128,0.033,21.193
	c0,0.316-0.263,0.573-0.588,0.573c0,0-0.001,0-0.001,0H78.847c-0.325,0-0.589-0.256-0.589-0.572c0,0,0,0,0,0v-33.77
	c0-0.316,0.263-0.572,0.587-0.572l13.783-0.031h9.701c2.908-0.054,5.79,0.537,8.428,1.728c1.741,0.811,3.35,1.864,4.779,3.126
	c1.587,1.389,2.936,3.014,3.997,4.816c1.362,2.428,2.211,5.097,2.497,7.848c0.371,2.64,0.355,5.317-0.047,7.953
	c-0.319,2.484-1.028,4.905-2.103,7.179c-0.699,1.457-1.55,2.841-2.54,4.128c-0.196,0.248-0.149,0.604,0.107,0.795
	c0.105,0.079,0.235,0.12,0.368,0.117c2.291-0.051,4.594-0.093,6.91-0.126c7.429-0.105,14.735-0.111,21.916-0.021h23.634
	c1.925,0.002,3.766,0.77,5.095,2.124c1.319,1.354,2.006,3.177,1.899,5.039c-0.24,4.651-0.751,9.285-1.531,13.88
	c-2.01,9.562-5.933,18.646-11.547,26.735c-5.519,7.956-12.554,14.811-20.726,20.192c-4.109,2.706-8.479,5.017-13.049,6.9
	C120.949,150.443,110.782,152.443,100.509,152.455z"/>
<path style="fill:#ED1C24;" d="M128.937,101.058c0.115,3.3-0.404,6.592-1.53,9.707c-0.825,2.269-1.998,4.404-3.478,6.333
	c-1.599,2.034-3.559,3.775-5.787,5.139c-2.952,1.764-6.298,2.811-9.754,3.052l-0.045,0.001h-0.045l-16.033-0.033l-12.547-0.208
	c-0.954-0.016-1.716-0.777-1.708-1.704l0.271-29.983v-6.7c0.002-0.921-0.757-1.674-1.704-1.689c-1.514-0.025-3.117-0.052-4.747-0.08
	c-6.317-0.108-13.477-0.231-17.361-0.231H30.805c-1.925-0.002-3.766-0.77-5.095-2.124c-1.319-1.354-2.006-3.177-1.899-5.039
	c0.24-4.651,0.751-9.285,1.531-13.879c2.01-9.562,5.933-18.646,11.547-26.735c8.325-12.019,20.058-21.43,33.775-27.093
	c4.65-1.915,9.484-3.377,14.43-4.364c10.215-2.018,20.742-2.018,30.957,0c4.947,0.987,9.78,2.449,14.43,4.364
	c4.56,1.902,8.929,4.212,13.049,6.901c3.287,2.008,6.405,4.265,9.325,6.752c6.165,5.303,11.306,11.633,15.183,18.693
	c1.994,3.642,3.634,7.457,4.9,11.394c0.161,0.492-0.118,1.018-0.624,1.175c-0.093,0.029-0.19,0.044-0.288,0.044l-6.508,0.018
	c-0.715-0.027-1.441-0.047-2.178-0.059c-1.464-0.024-2.888-0.018-4.272,0.019c-0.404,0.012-0.77-0.227-0.912-0.594
	c-1.414-3.581-3.212-7.008-5.366-10.222c-2.177-3.205-4.678-6.192-7.464-8.915c-2.866-2.803-6.007-5.328-9.377-7.538
	c-6.839-4.507-14.525-7.659-22.619-9.275c-8.419-1.662-17.096-1.662-25.516,0c-8.093,1.616-15.779,4.767-22.619,9.275
	c-13.755,9.03-23.323,22.943-26.652,38.753c-0.194,0.926-0.377,2.157-0.543,3.53c-0.113,0.931,0.572,1.774,1.53,1.884
	c0.067,0.008,0.134,0.011,0.201,0.012H54.47c4.004,0,10.915,0.118,17.6,0.233c5.437,0.093,10.573,0.181,12.948,0.181h4.993
	c0.961,0.003,1.74,0.76,1.743,1.694v19.702l-0.169,18.022c-0.003,0.416,0.341,0.757,0.769,0.763l0.092,0.001
	c3.045,0.089,5.374,0.166,6.689,0.21c4.331,0.147,5.635,0.212,7.563-0.308c1.621-0.372,3.136-1.094,4.431-2.112
	c1.467-1.218,2.576-2.792,3.215-4.562c0.573-1.513,0.839-3.12,0.782-4.731c-0.029-1.71-0.349-3.403-0.947-5.011
	c-0.569-1.662-1.361-3.244-2.355-4.705c-0.519-0.79-1.088-1.548-1.703-2.27c-0.335-0.397-0.276-0.983,0.132-1.309
	c0.173-0.138,0.391-0.213,0.615-0.211l7.819,0.03l5.64-0.032c0.329-0.004,0.637,0.159,0.814,0.429
	c1.058,1.64,1.909,3.398,2.536,5.236C128.552,95.526,128.978,98.286,128.937,101.058z M114.143,96.34L114.143,96.34z"/>
<rect y="168.064" style="display:none;" width="201.144" height="31.936"/>
<g>
	<path style="fill:#DE1F26;stroke:#231F20;stroke-miterlimit:10;" d="M0,158.786h8.227c4.877,0,7.315,2.608,7.315,7.823
		c0,2.585-0.835,4.735-2.505,6.448c2.422,1.428,3.633,3.976,3.633,7.643c0,2.811-0.713,5.05-2.14,6.719
		c-0.697,0.797-1.443,1.353-2.239,1.668c-0.796,0.316-1.869,0.473-3.218,0.473H7.796v-7.914H8.94c0.675,0,1.15-0.116,1.426-0.35
		c0.276-0.231,0.415-0.642,0.415-1.228c0-0.992-0.564-1.488-1.692-1.488H7.796v-8.207c1.239,0,1.858-0.579,1.858-1.736
		c0-1.067-0.558-1.601-1.675-1.601H6.734v22.523H0V158.786z"/>
	<path style="fill:#DE1F26;stroke:#231F20;stroke-miterlimit:10;" d="M27.3,181.129v8.725c-0.509,0.12-0.973,0.18-1.393,0.18
		c-2.488,0-4.561-1.112-6.22-3.337c-1.659-2.225-2.488-5.013-2.488-8.365c0-3.262,0.838-6.027,2.513-8.297
		c1.675-2.27,3.713-3.404,6.112-3.404c2.676,0,4.785,1.064,6.328,3.191c1.543,2.127,2.314,5.031,2.314,8.713v11.025h-6.204v-10.416
		c0-1.187-0.213-2.134-0.639-2.841c-0.426-0.706-0.998-1.06-1.717-1.06c-0.652,0-1.216,0.323-1.692,0.969s-0.713,1.413-0.713,2.3
		c0,0.932,0.216,1.698,0.647,2.3s0.979,0.902,1.642,0.902C26.332,181.715,26.835,181.52,27.3,181.129z"/>
	<path style="fill:#DE1F26;stroke:#231F20;stroke-miterlimit:10;" d="M52.012,189.561h-6.204v-12.693
		c0-1.293-0.393-1.939-1.178-1.939c-0.774,0-1.161,0.646-1.161,1.939v12.693h-6.204v-12.535c0-2.931,0.713-5.399,2.14-7.407
		c1.426-2.005,3.174-3.009,5.242-3.009c2.366,0,4.263,1.165,5.689,3.495c1.117,1.819,1.675,4.351,1.675,7.598V189.561z"/>
	<path style="fill:#DE1F26;stroke:#231F20;stroke-miterlimit:10;" d="M63.637,180.295v7.733c-0.896,0.451-1.753,0.676-2.571,0.676
		c-2.002,0-3.696-1.03-5.084-3.089s-2.082-4.577-2.082-7.553c0-3.217,0.835-5.93,2.505-8.139s3.721-3.314,6.154-3.314
		c1.294,0,2.532,0.353,3.716,1.06c1.183,0.706,2.112,1.653,2.787,2.841c1.128,1.969,1.692,4.825,1.692,8.567v7.395
		c0,4.013-0.838,7.27-2.513,9.774c-1.675,2.501-3.857,3.753-6.544,3.753c-0.818,0-1.852-0.278-3.102-0.834V191.5
		c0.807,0.601,1.626,0.902,2.455,0.902c1.117,0,1.979-0.501,2.588-1.5c0.608-1,0.912-2.43,0.912-4.294v-8.455
		c0-2.36-0.702-3.54-2.107-3.54c-0.597,0-1.12,0.313-1.567,0.936s-0.672,1.341-0.672,2.152c0,0.857,0.213,1.571,0.639,2.142
		c0.426,0.571,0.954,0.857,1.584,0.857C62.846,180.701,63.25,180.566,63.637,180.295z"/>
	<path style="fill:#DE1F26;stroke:#231F20;stroke-miterlimit:10;" d="M74.052,158.786h8.227c4.877,0,7.315,2.608,7.315,7.823
		c0,2.585-0.835,4.735-2.505,6.448c2.422,1.428,3.633,3.976,3.633,7.643c0,2.811-0.713,5.05-2.14,6.719
		c-0.697,0.797-1.443,1.353-2.239,1.668c-0.796,0.316-1.869,0.473-3.218,0.473h-1.277v-7.914h1.145c0.675,0,1.15-0.116,1.426-0.35
		c0.276-0.231,0.415-0.642,0.415-1.228c0-0.992-0.564-1.488-1.692-1.488h-1.294v-8.207c1.239,0,1.858-0.579,1.858-1.736
		c0-1.067-0.558-1.601-1.675-1.601h-1.244v22.523h-6.734V158.786z"/>
	<path style="fill:#DE1F26;stroke:#231F20;stroke-miterlimit:10;" d="M108.417,179.686h-9.405c-0.144-0.646-0.216-1.24-0.216-1.781
		c0-0.752,0.1-1.488,0.299-2.209h3.152c-0.221-1.668-0.912-2.503-2.073-2.503c-0.774,0-1.404,0.448-1.891,1.341
		c-0.487,0.896-0.73,2.041-0.73,3.439c0,1.458,0.234,2.638,0.706,3.54c0.469,0.902,1.086,1.353,1.849,1.353
		c0.619,0,1.216-0.421,1.791-1.263l3.533,5.772c-1.648,1.759-3.478,2.638-5.49,2.638c-2.455,0-4.517-1.12-6.187-3.359
		c-1.67-2.24-2.505-5.013-2.505-8.319c0-3.292,0.843-6.072,2.53-8.342c1.686-2.27,3.757-3.404,6.212-3.404
		c2.4,0,4.414,1.109,6.045,3.326c1.631,2.217,2.447,4.948,2.447,8.195C108.484,178.439,108.462,178.965,108.417,179.686z"/>
	<path style="fill:#DE1F26;stroke:#231F20;stroke-miterlimit:10;" d="M116.377,158.786v30.775h-6.204v-30.775H116.377z"/>
	<path style="fill:#FFFFFF;stroke:#231F20;stroke-miterlimit:10;" d="M136.099,157.933v8.77c-0.487-0.225-0.863-0.338-1.128-0.338
		c-0.509,0-0.945,0.256-1.31,0.767s-0.547,1.127-0.547,1.849c0,0.616,0.199,1.398,0.597,2.345l0.514,1.217
		c0.929,2.194,1.393,4.314,1.393,6.358c0,2.991-0.783,5.524-2.348,7.598c-1.565,2.074-3.474,3.111-5.73,3.111
		c-1.084,0-2.156-0.338-3.218-1.015v-8.906c0.641,0.556,1.211,0.834,1.708,0.834c0.586,0,1.075-0.228,1.467-0.687
		c0.393-0.458,0.589-1.034,0.589-1.726c0-0.451-0.315-1.435-0.945-2.954c-1.006-2.405-1.509-4.81-1.509-7.215
		c0-2.901,0.76-5.4,2.281-7.496c1.519-2.098,3.336-3.146,5.448-3.146C134.291,157.301,135.203,157.512,136.099,157.933z"/>
	<path style="fill:#FFFFFF;stroke:#231F20;stroke-miterlimit:10;" d="M144.439,158.068v9.402c1.051-1.037,2.101-1.556,3.152-1.556
		c1.592,0,2.855,0.782,3.79,2.345c0.934,1.563,1.402,3.675,1.402,6.335v14.249h-6.204v-11.882c0-0.962-0.075-1.608-0.223-1.939
		c-0.15-0.331-0.44-0.496-0.871-0.496c-0.697,0-1.045,0.699-1.045,2.097v12.22h-6.204v-30.775H144.439z"/>
	<path style="fill:#FFFFFF;stroke:#231F20;stroke-miterlimit:10;" d="M164.773,180.411v8.725c-0.509,0.12-0.973,0.18-1.393,0.18
		c-2.488,0-4.561-1.112-6.22-3.337c-1.659-2.225-2.488-5.013-2.488-8.365c0-3.262,0.838-6.027,2.512-8.297
		c1.676-2.27,3.713-3.404,6.113-3.404c2.676,0,4.786,1.064,6.327,3.191c1.544,2.127,2.314,5.031,2.314,8.713v11.025h-6.204v-10.416
		c0-1.187-0.213-2.134-0.638-2.841c-0.427-0.706-0.999-1.06-1.717-1.06c-0.652,0-1.216,0.323-1.692,0.969s-0.713,1.413-0.713,2.3
		c0,0.932,0.216,1.698,0.647,2.3c0.431,0.601,0.979,0.902,1.642,0.902C163.805,180.997,164.308,180.802,164.773,180.411z"/>
	<path style="fill:#FFFFFF;stroke:#231F20;stroke-miterlimit:10;" d="M183.813,166.139v9.018c-0.431-0.331-0.824-0.496-1.178-0.496
		c-1.128,0-1.692,1.172-1.692,3.517v10.664h-6.204v-12.287c0-3.247,0.652-5.835,1.957-7.766c1.305-1.931,3.046-2.898,5.225-2.898
		C182.408,165.891,183.038,165.974,183.813,166.139z"/>
	<path style="fill:#FFFFFF;stroke:#231F20;stroke-miterlimit:10;" d="M201.078,178.968h-9.405c-0.144-0.646-0.216-1.24-0.216-1.781
		c0-0.752,0.1-1.488,0.299-2.209h3.152c-0.221-1.668-0.912-2.503-2.073-2.503c-0.774,0-1.404,0.448-1.891,1.341
		c-0.487,0.896-0.73,2.041-0.73,3.439c0,1.458,0.234,2.638,0.706,3.54c0.469,0.902,1.086,1.353,1.849,1.353
		c0.619,0,1.216-0.421,1.791-1.263l3.533,5.772c-1.648,1.759-3.478,2.638-5.49,2.638c-2.455,0-4.517-1.12-6.187-3.359
		c-1.67-2.24-2.505-5.013-2.505-8.319c0-3.292,0.843-6.072,2.53-8.342c1.685-2.27,3.756-3.404,6.211-3.404
		c2.4,0,4.414,1.109,6.045,3.326c1.631,2.217,2.447,4.948,2.447,8.195C201.144,177.721,201.122,178.247,201.078,178.968z"/>
	<rect x="64.543" y="173.456" style="fill:none;" width="63.99" height="0"/>
</g>
</svg>
