<svg id="Layer_4" data-name="Layer 4" xmlns="http://www.w3.org/2000/svg" width="201.1439" height="200" viewBox="0 0 201.1439 200"><defs><style>.cls-1{fill:#fff;}.cls-2{fill:#ed1c24;}</style></defs><title>Logo BSmergeLast</title><ellipse cx="100.5719" cy="100" rx="100.5719" ry="100"/><path class="cls-1" d="M99.464,195.0775a95.3568,95.3568,0,0,1-67.5819-28.0427A95.7688,95.7688,0,0,1,13.74,141.6935c-1.5565-3.12-2.7786-5.9654-3.7291-8.3888a.7316.7316,0,0,1,.6941-.996l7.9962.119,8.8415.18a.7181.7181,0,0,1,.6435.416,77.8178,77.8178,0,0,0,5.9626,10.5753A78.6318,78.6318,0,0,0,83.59,176.8083a79.7644,79.7644,0,0,0,31.7473,0A78.19,78.19,0,0,0,143.4807,164.94a78.9325,78.9325,0,0,0,33.1613-49.5872c.3142-1.5387.6039-3.7366.8545-6.1337a.7335.7335,0,0,0-.7288-.8087l-20.02,0c-7.5023-.071-17.4492-.0209-27.0683.0263-7.7494.039-32.1421.022-36.6488.0185a.7256.7256,0,0,1-.7239-.7281l-.0882-15.4009a.7385.7385,0,0,1,.57-.7153,44.6818,44.6818,0,0,0,5.9282-2.3037,16.1778,16.1778,0,0,0,5.158-3.6988,17.92,17.92,0,0,0,3.6206-5.397,18.2733,18.2733,0,0,0,1.4474-6.5741,15.1207,15.1207,0,0,0-.8164-6.0023,10.3983,10.3983,0,0,0-3.3057-5.0723,10.7138,10.7138,0,0,0-5.4176-1.9546c-1.7352-.2547-2.4932-.07-5.7453-.0032-2.2081.0451-4.0025.0036-5.157-.0374q.0206,13.5588.0409,27.1176a.7323.7323,0,0,1-.7323.7334H72.5109a.7323.7323,0,0,1-.7324-.7323V44.4744a.7323.7323,0,0,1,.7307-.7323l17.1489-.0393h12.07a23.8267,23.8267,0,0,1,10.4865,2.2113,24.7226,24.7226,0,0,1,5.9459,4,24.9979,24.9979,0,0,1,4.973,6.1622,26.5511,26.5511,0,0,1,3.1068,10.0425,36.0615,36.0615,0,0,1-.0582,10.1764,31.3225,31.3225,0,0,1-2.6162,9.1865,29.9893,29.9893,0,0,1-3.16,5.2824.7254.7254,0,0,0,.591,1.1675q4.2755-.0983,8.5981-.1611,13.8657-.2007,27.2693-.0264h29.4068a8.7746,8.7746,0,0,1,6.3391,2.718,8.6707,8.6707,0,0,1,2.3624,6.4481,157.6038,157.6038,0,0,1-1.9044,17.76,95.26,95.26,0,0,1-14.3668,34.21,96.1071,96.1071,0,0,1-25.7883,25.8372,95.2273,95.2273,0,0,1-16.2359,8.8295A96.2487,96.2487,0,0,1,99.464,195.0775Z" transform="translate(1.0299 0)"/><path class="cls-2" d="M134.8356,129.3121a34.0054,34.0054,0,0,1-1.9039,12.4211,30.6293,30.6293,0,0,1-4.3271,8.1034,27.5384,27.5384,0,0,1-7.2006,6.5763,26.8506,26.8506,0,0,1-12.1361,3.9056l-.0563.0007h-.0563l-19.9491-.042-15.6116-.2656a2.162,2.162,0,0,1-2.1251-2.1807l.3375-38.3651v-8.5733a2.1567,2.1567,0,0,0-2.12-2.1615c-1.8836-.0318-3.8782-.0669-5.9062-.1024-7.86-.1384-16.7684-.2953-21.6015-.2953H12.7344a8.7737,8.7737,0,0,1-6.3391-2.7181,8.6706,8.6706,0,0,1-2.3627-6.4481A157.6837,157.6837,0,0,1,5.9371,81.4077a95.2543,95.2543,0,0,1,14.3672-34.21A95.8138,95.8138,0,0,1,62.3285,12.53,95.0356,95.0356,0,0,1,80.2831,6.946a96.7085,96.7085,0,0,1,38.5176,0A95.0377,95.0377,0,0,1,136.7556,12.53a99.6229,99.6229,0,0,1,16.2363,8.83A91.3678,91.3678,0,0,1,164.5946,30a86.0574,86.0574,0,0,1,18.8919,23.9189,85.0283,85.0283,0,0,1,6.0972,14.58,1.1967,1.1967,0,0,1-1.135,1.56l-8.0974.0226q-1.3344-.0522-2.71-.0761-2.7331-.0466-5.3157.0242a1.1746,1.1746,0,0,1-1.1353-.7606,69.72,69.72,0,0,0-6.6767-13.0794,73.97,73.97,0,0,0-9.2872-11.4068A77.8692,77.8692,0,0,0,143.559,35.137a78.1869,78.1869,0,0,0-28.1431-11.8678,79.79,79.79,0,0,0-31.7477,0A78.1948,78.1948,0,0,0,55.5251,35.137,78.9334,78.9334,0,0,0,22.3639,84.7243c-.242,1.1847-.4693,2.7605-.6755,4.5168a2.1719,2.1719,0,0,0,2.1532,2.4255H42.18c4.9814,0,13.5814.1513,21.8981.2977,6.7654.1191,13.1556.2316,16.11.2316h6.2129a2.1744,2.1744,0,0,1,2.1681,2.1681l0,25.21-.2106,23.0606a.97.97,0,0,0,.9568.9757l.1148.0019c3.7887.1137,6.6862.2122,8.3228.2693,5.3894.1879,7.0119.2715,9.41-.3946a13.8264,13.8264,0,0,0,5.5135-2.7027,13.6038,13.6038,0,0,0,4-5.8378,15.94,15.94,0,0,0,.973-6.0541,19.8294,19.8294,0,0,0-1.1787-6.412,25.5362,25.5362,0,0,0-2.93-6.02,29.3406,29.3406,0,0,0-2.1188-2.9052,1.19,1.19,0,0,1,.93-1.9451l9.7291.0388,7.0178-.0408a1.1834,1.1834,0,0,1,1.0123.5488,30.9021,30.9021,0,0,1,3.1551,6.7A32.5018,32.5018,0,0,1,134.8356,129.3121Zm-18.4077-6.038h0Z" transform="translate(1.0299 0)"/></svg>